<svg xmlns="http://www.w3.org/2000/svg" version="1.1" id="Layer_1" x="0px" y="0px"
     style="enable-background:new 0 0 1920 1080;" xml:space="preserve" viewBox="248 300.99 1424 478.03">
<style type="text/css">
	.st0{fill:#BBBCBF;}
	.st1{fill:#5CB947;}
	.st2{fill-rule:evenodd;clip-rule:evenodd;fill:#5CB947;}
	.st3{fill:#FFFFFF;}
	.st4{fill-rule:evenodd;clip-rule:evenodd;fill:#FFFFFF;}
</style>
    <g>
		<path class="st0"
              d="M339.99,691.59v18.01c-12.23-5.49-21.97-8.23-29.23-8.23c-4.13,0-7.42,0.68-9.86,2.06    c-2.44,1.4-3.66,3.22-3.66,5.52c0,1.75,0.88,3.43,2.64,5.01s6.05,3.63,12.86,6.13c6.82,2.5,12.27,4.84,16.36,7    c4.1,2.15,7.62,5.19,10.59,9.1c2.97,3.92,4.46,8.88,4.46,14.84c0,8.54-3.24,15.34-9.73,20.38c-6.49,5.06-15.03,7.59-25.63,7.59    c-11.44,0-22.51-2.96-33.25-8.89v-19.87c6.16,4.14,11.61,7.16,16.36,9.04c4.75,1.9,9.79,2.84,15.11,2.84    c9.01,0,13.53-2.84,13.53-8.51c0-1.93-0.9-3.76-2.71-5.47s-6.15-3.79-13.04-6.26c-6.88-2.47-12.34-4.75-16.36-6.85    c-4.02-2.12-7.49-5.14-10.41-9.04c-2.93-3.92-4.39-8.93-4.39-15.04c0-7.94,3.19-14.33,9.57-19.19c6.38-4.86,14.92-7.29,25.6-7.29    C318.63,684.47,329.04,686.84,339.99,691.59z"/>
        <path class="st0" d="M382.81,685.67v92.16h-22.95v-92.16H382.81z"/>
        <path class="st0"
              d="M491.99,692.05v20.13c-11.74-5.67-23.22-8.51-34.43-8.51c-10.82,0-19.15,2.73-25.01,8.18    c-5.85,5.45-8.77,12.41-8.77,20.84c0,8.1,2.93,14.66,8.77,19.67c5.86,5.01,13.55,7.53,23.09,7.53c5.05,0,10.14-1.1,15.24-3.31    v-10.75h-13.32v-16.89h36.35v37.68c-3.65,3.65-9.2,6.63-16.66,8.93c-7.46,2.32-14.83,3.46-22.13,3.46    c-16.06,0-29.24-4.42-39.55-13.28c-10.31-8.88-15.47-20.15-15.47-33.83c0-13.98,5.16-25.37,15.47-34.2    c10.31-8.82,23.67-13.24,40.08-13.24C469.18,684.47,481.31,687.01,491.99,692.05z"/>
        <path class="st0"
              d="M607.25,685.67v92.16h-19.39l-50.87-59.05v59.05h-22.96v-92.16h21.06l49.2,56.35v-56.35H607.25z"/>
        <path class="st0"
              d="M733.59,730.01h19.72c-5.24,12.14-11.42,21.32-18.54,27.57l18.54,20.26h-27.97l-6.73-7.33    c-8.93,5.67-18.58,8.51-28.97,8.51c-8.35,0-15.3-2.3-20.84-6.94c-5.54-4.64-8.31-10.42-8.31-17.33c0-10.39,6.89-19.06,20.65-26.06    c-5.59-7.66-8.38-14.47-8.38-20.46c0-6.81,2.66-12.47,7.98-16.98c5.32-4.51,12.07-6.78,20.26-6.78c7.83,0,14.23,2.06,19.2,6.17    c4.97,4.12,7.46,9.37,7.46,15.74c0,8.97-5.72,16.85-17.15,23.63l12.53,14.44C726.99,740.48,730.51,735.68,733.59,730.01z     M707.92,758.62l-16.36-18.06c-6.29,4.05-9.44,8.18-9.44,12.39c0,2.95,1.15,5.49,3.43,7.62c2.28,2.14,5.02,3.2,8.19,3.2    C698.18,763.78,702.91,762.07,707.92,758.62z M700.46,719.05c6.11-3.57,9.17-7.44,9.17-11.62c0-2.25-0.79-4.09-2.37-5.54    c-1.58-1.45-3.64-2.17-6.14-2.17c-2.46,0-4.49,0.68-6.1,2.01c-1.6,1.34-2.4,3.04-2.4,5.05    C692.62,710.3,695.23,714.39,700.46,719.05z"/>
	</g>
    <g>
		<path class="st1"
              d="M872.56,760.94v16.89H804.6v-92.16h67.04v16.89h-44.07v19.34h42.02v16.89h-42.02v22.17H872.56z"/>
        <path class="st1"
              d="M983.45,685.67v92.16h-19.37l-50.88-59.05v59.05h-22.96v-92.16h21.06l49.21,56.35v-56.35H983.45z"/>
        <path class="st1"
              d="M1092.13,692.05v20.13c-11.75-5.67-23.22-8.51-34.45-8.51c-10.81,0-19.15,2.73-24.99,8.18    c-5.86,5.45-8.78,12.41-8.78,20.84c0,8.1,2.93,14.66,8.78,19.67c5.84,5.01,13.53,7.53,23.09,7.53c5.05,0,10.13-1.1,15.23-3.31    v-10.75h-13.33v-16.89h36.37v37.68c-3.66,3.65-9.21,6.63-16.66,8.93c-7.46,2.32-14.84,3.46-22.13,3.46    c-16.06,0-29.24-4.42-39.55-13.28c-10.31-8.88-15.47-20.15-15.47-33.83c0-13.98,5.16-25.37,15.47-34.2s23.68-13.24,40.09-13.24    C1069.32,684.47,1081.44,687.01,1092.13,692.05z"/>
        <path class="st1"
              d="M1114.03,685.67h41.17c8.91,0,16.17,2.58,21.77,7.75c5.58,5.16,8.38,11.42,8.38,18.75    c0,10.16-5.28,17.68-15.84,22.56c4.62,2.1,9.02,7.77,13.18,17c4.18,9.23,8.19,17.94,12.08,26.11h-25.19    c-1.51-3.04-4.12-8.82-7.86-17.35c-3.74-8.54-6.94-14.01-9.59-16.43c-2.67-2.43-5.51-3.63-8.54-3.63h-6.59v37.4h-22.96V685.67z     M1136.99,702.55v20.97h12.14c3.87,0,6.94-0.9,9.21-2.73c2.27-1.82,3.39-4.44,3.39-7.83c0-6.94-4.36-10.42-13.13-10.42H1136.99z"/>
        <path class="st1"
              d="M1259.39,685.67l40.93,92.16h-24.69l-7.59-18.21h-41.28l-6.87,18.21h-24.34l37.23-92.16H1259.39z     M1261.32,743.52l-14.93-35.82l-13.53,35.82H1261.32z"/>
	</g>
    <g>
		<path class="st1" d="M1387.02,685.67l-42.59,93.34h-9.96l-44.65-93.34h25.01l24.4,52.66l23.07-52.66H1387.02z"/>
        <path class="st1" d="M1421.05,685.67v92.16h-22.96v-92.16H1421.05z"/>
        <path class="st1"
              d="M1535.64,685.67v92.16h-19.39l-50.86-59.05v59.05h-22.96v-92.16h21.05l49.22,56.35v-56.35H1535.64z"/>
        <path class="st1"
              d="M1644.3,692.05v20.13c-11.75-5.67-23.22-8.51-34.45-8.51c-10.81,0-19.15,2.73-24.99,8.18    c-5.86,5.45-8.78,12.41-8.78,20.84c0,8.1,2.93,14.66,8.78,19.67c5.84,5.01,13.53,7.53,23.09,7.53c5.05,0,10.13-1.1,15.23-3.31    v-10.75h-13.33v-16.89h36.37v37.68c-3.66,3.65-9.21,6.63-16.66,8.93c-7.46,2.32-14.84,3.46-22.13,3.46    c-16.06,0-29.24-4.42-39.55-13.28c-10.31-8.88-15.47-20.15-15.47-33.83c0-13.98,5.16-25.37,15.47-34.2    c10.31-8.82,23.68-13.24,40.09-13.24C1621.49,684.47,1633.61,687.01,1644.3,692.05z"/>
	</g>
    <g>
		<path class="st0"
              d="M722.87,367.32c33.25,0,60.17,10.04,80.75,30.11c20.59,20.07,30.88,43.42,30.88,70.06    c0,27.01-10.43,50.44-31.3,70.26c-20.86,19.85-47.64,29.78-80.33,29.78c-33.06,0-59.98-9.87-80.75-29.63    c-20.77-19.74-31.15-43.21-31.15-70.41c0-26.73,10.31-50.11,30.94-70.13C662.55,377.34,689.53,367.32,722.87,367.32z M722.87,527    c18.44,0,33.29-5.47,44.57-16.42c11.26-10.94,16.9-25.31,16.9-43.1c0-17.88-5.63-32.27-16.9-43.16    c-11.28-10.9-26.13-16.35-44.57-16.35c-18.53,0-33.46,5.45-44.77,16.35c-11.32,10.89-16.97,25.28-16.97,43.16    c0,17.79,5.65,32.16,16.97,43.1C689.41,521.53,704.34,527,722.87,527z"/>
        <path class="st0"
              d="M869.42,369.83h86.05c33.25,0,59.54,9.11,78.86,27.31c19.33,18.21,28.98,41.75,28.98,70.63    c0,30.26-9.8,54.04-29.39,71.3c-19.61,17.29-47.58,25.93-83.9,25.93h-80.61V369.83z M918.04,405.59v123.64h31.71    c20.58,0,36.32-5.66,47.22-16.98c10.9-11.32,16.33-26.24,16.33-44.77c0-19.19-5.51-34.3-16.55-45.34    c-11.03-11.03-26.88-16.55-47.55-16.55H918.04z"/>
        <path class="st0" d="M1243.54,529.24V565h-143.89V369.83h141.94v35.76h-93.32v40.93h89v35.77h-89v46.94H1243.54z"/>
        <path class="st0"
              d="M1280.71,369.83h87.17c18.89,0,34.27,5.47,46.09,16.41c11.82,10.94,17.75,24.18,17.75,39.72    c0,21.5-11.18,37.41-33.53,47.74c9.8,4.46,19.11,16.46,27.93,36.01c8.82,19.55,17.35,37.98,25.56,55.29h-53.35    c-3.19-6.43-8.73-18.67-16.65-36.75c-7.9-18.06-14.68-29.66-20.31-34.78c-5.63-5.12-11.67-7.68-18.1-7.68h-13.96V565h-48.61    V369.83z M1329.33,405.59v44.43h25.71c8.19,0,14.68-1.93,19.48-5.8c4.79-3.87,7.2-9.38,7.2-16.55c0-14.71-9.28-22.08-27.81-22.08    H1329.33z"/>
        <path class="st0"
              d="M1672,369.83V565h-41.05l-107.72-125.03V565h-48.61V369.83h44.58l104.19,119.31V369.83H1672z"/>
	</g>
    <g>
		<path class="st2"
              d="M265.17,300.99h286.12c9.44,0,17.16,7.72,17.16,17.17v286.11c0,9.44-7.72,17.16-17.16,17.16H265.17    c-9.44,0-17.17-7.72-17.17-17.16V318.16C248,308.72,255.72,300.99,265.17,300.99"/>
	</g>
    <g>
		<path class="st3"
              d="M407.97,435.98l62.72-72.37h42.26v195.16h-48.61V436.95l-52.72,61.19h-7.3l-52.72-61.19v121.82h-48.61V363.61    h42.21L407.97,435.98z"/>
	</g>
    <g>
		<path class="st4"
              d="M270.89,587.11c6.32,0,11.45,5.12,11.45,11.44c0,6.32-5.13,11.45-11.45,11.45c-6.32,0-11.45-5.13-11.45-11.45    C259.44,592.23,264.57,587.11,270.89,587.11"/>
	</g>
    <g>
		<path class="st4"
              d="M545.56,587.11c6.32,0,11.44,5.12,11.44,11.44c0,6.32-5.12,11.45-11.44,11.45c-6.32,0-11.45-5.13-11.45-11.45    C534.11,592.23,539.24,587.11,545.56,587.11"/>
	</g>
    <g>
		<path class="st4"
              d="M270.89,312.44c6.32,0,11.45,5.13,11.45,11.45c0,6.32-5.13,11.44-11.45,11.44c-6.32,0-11.45-5.13-11.45-11.44    C259.44,317.57,264.57,312.44,270.89,312.44"/>
	</g>
    <g>
		<path class="st4"
              d="M545.56,312.44c6.32,0,11.44,5.13,11.44,11.45c0,6.32-5.12,11.44-11.44,11.44c-6.32,0-11.45-5.13-11.45-11.44    C534.11,317.57,539.24,312.44,545.56,312.44"/>
	</g>
</svg>